<svg xmlns="http://www.w3.org/2000/svg" xmlns:xlink="http://www.w3.org/1999/xlink" width="500" zoomAndPan="magnify" viewBox="0 0 375 374.999991" height="500" preserveAspectRatio="xMidYMid meet" version="1.0"><defs><g/></defs><g fill="#ffffff" fill-opacity="1"><g transform="translate(41.748084, 262.182463)"><g><path d="M 84.796875 -131.5 L 84.796875 -105.203125 L 39.53125 -105.203125 L 39.53125 -79.0625 L 82.890625 -79.0625 L 82.890625 -52.765625 L 39.53125 -52.765625 L 39.53125 -26.296875 L 84.796875 -26.296875 L 84.796875 0 L 9.5625 0 L 9.5625 -131.5 Z M 84.796875 -131.5 "/></g></g></g><g fill="#ffffff" fill-opacity="1"><g transform="translate(116.181208, 262.182463)"><g><path d="M 110.453125 0 L 89.421875 -73.796875 L 68.375 0 L 35.0625 0 L -2.390625 -131.5 L 30.921875 -131.5 L 53.390625 -41.28125 L 54.1875 -41.28125 L 78.09375 -131.5 L 100.734375 -131.5 L 124.640625 -41.28125 L 125.4375 -41.28125 L 147.921875 -131.5 L 181.0625 -131.5 L 143.609375 0 Z M 110.453125 0 "/></g></g></g><g fill="#ffffff" fill-opacity="1"><g transform="translate(264.119152, 255.534209)"><g><path d="M 35.25 -9.84375 C 35.351562 -9.664062 35.363281 -9.476562 35.28125 -9.28125 C 35.207031 -9.082031 35.078125 -8.941406 34.890625 -8.859375 C 34.097656 -8.492188 33.039062 -8.1875 31.71875 -7.9375 C 30.40625 -7.6875 28.890625 -7.441406 27.171875 -7.203125 C 26.785156 -5.410156 26.378906 -3.484375 25.953125 -1.421875 C 25.523438 0.628906 25.117188 2.703125 24.734375 4.796875 C 24.359375 6.898438 24.003906 8.921875 23.671875 10.859375 C 23.347656 12.796875 23.070312 14.566406 22.84375 16.171875 C 22.625 17.785156 22.445312 19.132812 22.3125 20.21875 C 22.519531 20.113281 22.734375 20.097656 22.953125 20.171875 C 23.128906 20.253906 23.265625 20.382812 23.359375 20.5625 C 23.453125 20.75 23.472656 20.953125 23.421875 21.171875 C 23.128906 21.960938 22.859375 22.59375 22.609375 23.0625 C 22.359375 23.539062 22.050781 23.78125 21.6875 23.78125 C 21.601562 23.78125 21.507812 23.765625 21.40625 23.734375 C 21.007812 23.609375 20.773438 23.253906 20.703125 22.671875 C 20.640625 22.085938 20.703125 20.96875 20.890625 19.3125 C 21.128906 17.226562 21.535156 14.429688 22.109375 10.921875 C 22.503906 8.679688 22.925781 6.359375 23.375 3.953125 C 23.820312 1.554688 24.269531 -0.722656 24.71875 -2.890625 C 22.476562 1.203125 20.238281 4.625 18 7.375 C 15.757812 10.132812 13.625 12.113281 11.59375 13.3125 C 9.5625 14.507812 7.726562 14.804688 6.09375 14.203125 C 4.59375 13.648438 3.5 12.390625 2.8125 10.421875 C 2.125 8.460938 1.863281 5.925781 2.03125 2.8125 C 2.207031 -0.300781 2.835938 -3.835938 3.921875 -7.796875 C 4.367188 -9.484375 4.976562 -11.332031 5.75 -13.34375 C 6.53125 -15.363281 7.414062 -17.4375 8.40625 -19.5625 C 9.394531 -21.6875 10.46875 -23.773438 11.625 -25.828125 C 12.789062 -27.890625 13.984375 -29.8125 15.203125 -31.59375 C 16.429688 -33.375 17.65625 -34.910156 18.875 -36.203125 C 20.082031 -37.492188 21.285156 -38.347656 22.484375 -38.765625 C 23.691406 -39.191406 24.753906 -39.15625 25.671875 -38.65625 C 26.117188 -38.414062 26.566406 -37.957031 27.015625 -37.28125 C 27.460938 -36.613281 27.796875 -35.617188 28.015625 -34.296875 C 28.242188 -32.984375 28.253906 -31.226562 28.046875 -29.03125 C 27.835938 -26.84375 27.285156 -24.101562 26.390625 -20.8125 C 26.335938 -20.601562 26.21875 -20.441406 26.03125 -20.328125 C 25.84375 -20.222656 25.660156 -20.195312 25.484375 -20.25 C 25.265625 -20.300781 25.101562 -20.421875 25 -20.609375 C 24.894531 -20.796875 24.867188 -20.992188 24.921875 -21.203125 C 25.847656 -24.628906 26.394531 -27.476562 26.5625 -29.75 C 26.738281 -32.019531 26.660156 -33.765625 26.328125 -34.984375 C 25.992188 -36.210938 25.523438 -36.988281 24.921875 -37.3125 C 24.335938 -37.65625 23.601562 -37.628906 22.71875 -37.234375 C 21.84375 -36.835938 20.929688 -36.148438 19.984375 -35.171875 C 18.796875 -33.898438 17.597656 -32.394531 16.390625 -30.65625 C 15.191406 -28.914062 14.03125 -27.039062 12.90625 -25.03125 C 11.789062 -23.03125 10.742188 -20.988281 9.765625 -18.90625 C 8.796875 -16.820312 7.929688 -14.796875 7.171875 -12.828125 C 6.421875 -10.867188 5.820312 -9.054688 5.375 -7.390625 C 3.789062 -1.566406 3.195312 3.203125 3.59375 6.921875 C 3.757812 8.503906 4.101562 9.800781 4.625 10.8125 C 5.15625 11.832031 5.828125 12.488281 6.640625 12.78125 C 7.617188 13.144531 8.800781 13 10.1875 12.34375 C 11.570312 11.6875 13.054688 10.550781 14.640625 8.9375 C 16.347656 7.195312 18.085938 4.972656 19.859375 2.265625 C 21.628906 -0.429688 23.382812 -3.507812 25.125 -6.96875 C 24.332031 -6.882812 23.503906 -6.796875 22.640625 -6.703125 C 21.785156 -6.609375 20.925781 -6.523438 20.0625 -6.453125 C 18.632812 -6.296875 17.1875 -6.132812 15.71875 -5.96875 C 14.257812 -5.8125 12.832031 -5.640625 11.4375 -5.453125 C 11.40625 -5.453125 11.378906 -5.453125 11.359375 -5.453125 C 10.910156 -5.453125 10.660156 -5.675781 10.609375 -6.125 C 10.578125 -6.34375 10.617188 -6.535156 10.734375 -6.703125 C 10.859375 -6.878906 11.023438 -6.976562 11.234375 -7 C 12.628906 -7.1875 14.054688 -7.351562 15.515625 -7.5 C 16.984375 -7.644531 18.445312 -7.796875 19.90625 -7.953125 C 20.925781 -8.054688 21.941406 -8.160156 22.953125 -8.265625 C 23.972656 -8.367188 24.957031 -8.472656 25.90625 -8.578125 C 25.9375 -8.640625 25.957031 -8.6875 25.96875 -8.71875 C 25.988281 -8.757812 26.007812 -8.804688 26.03125 -8.859375 C 26.21875 -9.285156 26.535156 -9.414062 26.984375 -9.25 C 27.191406 -9.175781 27.347656 -9.019531 27.453125 -8.78125 C 28.960938 -8.988281 30.304688 -9.203125 31.484375 -9.421875 C 32.671875 -9.648438 33.597656 -9.925781 34.265625 -10.25 C 34.441406 -10.320312 34.628906 -10.316406 34.828125 -10.234375 C 35.023438 -10.160156 35.164062 -10.03125 35.25 -9.84375 Z M 35.25 -9.84375 "/></g></g></g><g fill="#ffffff" fill-opacity="1"><g transform="translate(300.796347, 255.534209)"><g><path d="M 16.578125 -8.78125 C 16.765625 -8.707031 16.890625 -8.570312 16.953125 -8.375 C 17.015625 -8.175781 17.007812 -7.984375 16.9375 -7.796875 C 16.4375 -6.765625 15.890625 -5.734375 15.296875 -4.703125 C 14.703125 -3.679688 14.082031 -2.738281 13.4375 -1.875 C 12.789062 -1.019531 12.125 -0.335938 11.4375 0.171875 C 10.75 0.691406 10.0625 0.953125 9.375 0.953125 C 9.238281 0.953125 9.09375 0.9375 8.9375 0.90625 C 7.175781 0.5625 6.082031 -1.8125 5.65625 -6.21875 C 5.207031 -5.601562 4.6875 -4.921875 4.09375 -4.171875 C 3.5 -3.421875 2.875 -2.675781 2.21875 -1.9375 C 2.113281 -1.832031 1.941406 -1.664062 1.703125 -1.4375 C 1.460938 -1.21875 1.179688 -1.039062 0.859375 -0.90625 C 0.546875 -0.78125 0.234375 -0.796875 -0.078125 -0.953125 C -0.710938 -1.191406 -1.015625 -1.875 -0.984375 -3 C -0.984375 -3.664062 -0.859375 -4.484375 -0.609375 -5.453125 C -0.359375 -6.429688 -0.00390625 -7.414062 0.453125 -8.40625 C 0.910156 -9.394531 1.445312 -10.269531 2.0625 -11.03125 C 2.6875 -11.800781 3.382812 -12.316406 4.15625 -12.578125 C 4.625 -12.765625 5.203125 -12.796875 5.890625 -12.671875 C 6.578125 -12.554688 7.289062 -12.066406 8.03125 -11.203125 C 8.164062 -11.035156 8.222656 -10.847656 8.203125 -10.640625 C 8.191406 -10.429688 8.109375 -10.257812 7.953125 -10.125 C 7.796875 -10 7.609375 -9.941406 7.390625 -9.953125 C 7.179688 -9.960938 7.015625 -10.046875 6.890625 -10.203125 C 6.253906 -10.941406 5.703125 -11.289062 5.234375 -11.25 C 4.773438 -11.21875 4.390625 -11.082031 4.078125 -10.84375 C 3.492188 -10.414062 2.960938 -9.804688 2.484375 -9.015625 C 2.015625 -8.222656 1.617188 -7.390625 1.296875 -6.515625 C 0.984375 -5.648438 0.757812 -4.84375 0.625 -4.09375 C 0.5 -3.34375 0.460938 -2.796875 0.515625 -2.453125 C 0.597656 -2.503906 0.679688 -2.566406 0.765625 -2.640625 C 0.859375 -2.722656 0.957031 -2.832031 1.0625 -2.96875 C 1.851562 -3.832031 2.578125 -4.691406 3.234375 -5.546875 C 3.898438 -6.410156 4.46875 -7.171875 4.9375 -7.828125 C 5.070312 -8.015625 5.195312 -8.191406 5.3125 -8.359375 C 5.4375 -8.535156 5.550781 -8.691406 5.65625 -8.828125 C 5.863281 -9.085938 6.140625 -9.164062 6.484375 -9.0625 C 6.828125 -8.976562 7.015625 -8.753906 7.046875 -8.390625 C 7.117188 -6.671875 7.253906 -5.289062 7.453125 -4.25 C 7.648438 -3.207031 7.867188 -2.425781 8.109375 -1.90625 C 8.347656 -1.394531 8.570312 -1.046875 8.78125 -0.859375 C 8.988281 -0.679688 9.144531 -0.59375 9.25 -0.59375 C 9.757812 -0.488281 10.566406 -1.003906 11.671875 -2.140625 C 12.773438 -3.273438 14.066406 -5.367188 15.546875 -8.421875 C 15.648438 -8.640625 15.800781 -8.78125 16 -8.84375 C 16.195312 -8.90625 16.390625 -8.882812 16.578125 -8.78125 Z M 16.578125 -8.78125 "/></g></g></g><g fill="#ffffff" fill-opacity="1"><g transform="translate(315.514707, 255.534209)"><g><path d="M 22.3125 -8.859375 C 22.46875 -8.734375 22.550781 -8.5625 22.5625 -8.34375 C 22.582031 -8.132812 22.523438 -7.953125 22.390625 -7.796875 C 19.046875 -3.867188 16.394531 -2.269531 14.4375 -3 C 13.039062 -3.53125 12.289062 -5.207031 12.1875 -8.03125 C 11.894531 -7.5 11.582031 -6.894531 11.25 -6.21875 C 10.925781 -5.550781 10.65625 -5.007812 10.4375 -4.59375 C 10.28125 -4.195312 10.125 -3.835938 9.96875 -3.515625 C 9.8125 -3.203125 9.664062 -2.941406 9.53125 -2.734375 C 9.457031 -2.578125 9.320312 -2.34375 9.125 -2.03125 C 8.925781 -1.726562 8.671875 -1.460938 8.359375 -1.234375 C 8.054688 -1.015625 7.707031 -0.957031 7.3125 -1.0625 C 6.84375 -1.195312 6.488281 -1.546875 6.25 -2.109375 C 6.007812 -2.679688 5.863281 -3.300781 5.8125 -3.96875 C 5.757812 -4.644531 5.734375 -5.195312 5.734375 -5.625 C 5.734375 -5.957031 5.734375 -6.28125 5.734375 -6.59375 C 5.734375 -6.914062 5.75 -7.210938 5.78125 -7.484375 C 4.851562 -6.160156 3.96875 -4.789062 3.125 -3.375 C 2.28125 -1.96875 1.382812 -0.351562 0.4375 1.46875 C 0.113281 2.070312 -0.226562 2.375 -0.59375 2.375 C -0.726562 2.375 -0.847656 2.332031 -0.953125 2.25 C -1.078125 2.195312 -1.191406 2.109375 -1.296875 1.984375 C -1.410156 1.867188 -1.472656 1.632812 -1.484375 1.28125 C -1.492188 0.925781 -1.4375 0.378906 -1.3125 -0.359375 C -1.195312 -1.097656 -0.972656 -2.125 -0.640625 -3.4375 C -0.242188 -5.050781 0.222656 -6.648438 0.765625 -8.234375 C 1.304688 -9.816406 1.851562 -11.238281 2.40625 -12.5 C 2.488281 -12.707031 2.628906 -12.851562 2.828125 -12.9375 C 3.023438 -13.019531 3.21875 -13.003906 3.40625 -12.890625 C 3.613281 -12.816406 3.75 -12.679688 3.8125 -12.484375 C 3.882812 -12.285156 3.878906 -12.09375 3.796875 -11.90625 C 3.085938 -10.25 2.445312 -8.515625 1.875 -6.703125 C 1.3125 -4.898438 0.867188 -3.328125 0.546875 -1.984375 C 1.367188 -3.429688 2.175781 -4.78125 2.96875 -6.03125 C 3.757812 -7.28125 4.585938 -8.5 5.453125 -9.6875 C 5.535156 -9.789062 5.675781 -9.9375 5.875 -10.125 C 6.070312 -10.3125 6.34375 -10.351562 6.6875 -10.25 C 7.03125 -10.113281 7.21875 -9.859375 7.25 -9.484375 C 7.289062 -9.117188 7.300781 -8.503906 7.28125 -7.640625 C 7.28125 -7.347656 7.269531 -7.03125 7.25 -6.6875 C 7.238281 -6.34375 7.234375 -5.988281 7.234375 -5.625 C 7.234375 -4.832031 7.285156 -4.179688 7.390625 -3.671875 C 7.503906 -3.171875 7.597656 -2.832031 7.671875 -2.65625 C 7.722656 -2.707031 7.796875 -2.796875 7.890625 -2.921875 C 7.984375 -3.054688 8.097656 -3.226562 8.234375 -3.4375 C 8.335938 -3.625 8.460938 -3.875 8.609375 -4.1875 C 8.753906 -4.507812 8.914062 -4.851562 9.09375 -5.21875 C 9.78125 -6.695312 10.34375 -7.832031 10.78125 -8.625 C 11.21875 -9.414062 11.59375 -9.957031 11.90625 -10.25 C 12.226562 -10.539062 12.554688 -10.644531 12.890625 -10.5625 C 13.316406 -10.457031 13.5625 -10.195312 13.625 -9.78125 C 13.695312 -9.375 13.734375 -9.054688 13.734375 -8.828125 C 13.703125 -7.585938 13.796875 -6.582031 14.015625 -5.8125 C 14.242188 -5.050781 14.570312 -4.59375 15 -4.4375 C 15.46875 -4.25 16.222656 -4.457031 17.265625 -5.0625 C 18.304688 -5.664062 19.632812 -6.90625 21.25 -8.78125 C 21.375 -8.9375 21.539062 -9.019531 21.75 -9.03125 C 21.96875 -9.050781 22.15625 -8.992188 22.3125 -8.859375 Z M 22.3125 -8.859375 "/></g></g></g><g fill="#ffffff" fill-opacity="1"><g transform="translate(336.128317, 255.534209)"><g><path d="M 11.59375 -9.015625 C 11.78125 -8.910156 11.890625 -8.753906 11.921875 -8.546875 C 11.960938 -8.335938 11.929688 -8.140625 11.828125 -7.953125 C 11.328125 -7.160156 10.691406 -6.273438 9.921875 -5.296875 C 9.160156 -4.328125 8.332031 -3.398438 7.4375 -2.515625 C 6.539062 -1.628906 5.648438 -0.894531 4.765625 -0.3125 C 3.878906 0.257812 3.066406 0.546875 2.328125 0.546875 C 2.015625 0.546875 1.738281 0.492188 1.5 0.390625 C 0.601562 -0.00390625 0.109375 -0.957031 0.015625 -2.46875 C -0.078125 -3.988281 0.234375 -6.132812 0.953125 -8.90625 C 1.003906 -9.113281 1.117188 -9.269531 1.296875 -9.375 C 1.484375 -9.476562 1.671875 -9.503906 1.859375 -9.453125 C 2.066406 -9.398438 2.222656 -9.28125 2.328125 -9.09375 C 2.441406 -8.914062 2.46875 -8.734375 2.40625 -8.546875 C 1.988281 -6.859375 1.726562 -5.519531 1.625 -4.53125 C 1.519531 -3.539062 1.5 -2.796875 1.5625 -2.296875 C 1.625 -1.796875 1.722656 -1.457031 1.859375 -1.28125 C 1.992188 -1.113281 2.070312 -1.03125 2.09375 -1.03125 C 2.4375 -0.875 2.9375 -0.984375 3.59375 -1.359375 C 4.257812 -1.742188 5 -2.3125 5.8125 -3.0625 C 6.632812 -3.8125 7.457031 -4.679688 8.28125 -5.671875 C 9.113281 -6.660156 9.863281 -7.695312 10.53125 -8.78125 C 10.65625 -8.96875 10.816406 -9.078125 11.015625 -9.109375 C 11.210938 -9.148438 11.40625 -9.117188 11.59375 -9.015625 Z M 2.25 -12.1875 C 1.726562 -12.207031 1.457031 -12.359375 1.4375 -12.640625 C 1.425781 -12.921875 1.546875 -13.203125 1.796875 -13.484375 C 2.046875 -13.773438 2.304688 -13.972656 2.578125 -14.078125 C 2.992188 -14.210938 3.300781 -14.1875 3.5 -14 C 3.695312 -13.820312 3.789062 -13.585938 3.78125 -13.296875 C 3.769531 -13.003906 3.632812 -12.738281 3.375 -12.5 C 3.125 -12.257812 2.75 -12.15625 2.25 -12.1875 Z M 2.25 -12.1875 "/></g></g></g><g fill="#ffffff" fill-opacity="1"><g transform="translate(346.138381, 255.534209)"><g><path d="M 15.9375 -8.828125 C 16.125 -8.722656 16.242188 -8.570312 16.296875 -8.375 C 16.347656 -8.175781 16.320312 -7.984375 16.21875 -7.796875 C 14.976562 -5.609375 13.863281 -3.925781 12.875 -2.75 C 11.882812 -1.570312 10.875 -1.050781 9.84375 -1.1875 C 8.53125 -1.34375 7.488281 -2.765625 6.71875 -5.453125 C 6.457031 -6.328125 6.226562 -6.953125 6.03125 -7.328125 C 5.832031 -7.710938 5.671875 -7.953125 5.546875 -8.046875 C 5.429688 -8.140625 5.347656 -8.1875 5.296875 -8.1875 C 5.222656 -8.21875 5.066406 -8.140625 4.828125 -7.953125 C 4.585938 -7.765625 4.242188 -7.351562 3.796875 -6.71875 C 3.347656 -6.09375 2.789062 -5.113281 2.125 -3.78125 C 1.46875 -2.445312 0.664062 -0.617188 -0.28125 1.703125 C -0.40625 2.015625 -0.628906 2.171875 -0.953125 2.171875 C -1.023438 2.171875 -1.085938 2.160156 -1.140625 2.140625 C -1.585938 2.035156 -1.785156 1.757812 -1.734375 1.3125 C -1.609375 0.226562 -1.375 -1.023438 -1.03125 -2.453125 C -0.6875 -3.878906 -0.3125 -5.328125 0.09375 -6.796875 C 0.507812 -8.273438 0.882812 -9.597656 1.21875 -10.765625 C 1.300781 -11.023438 1.375 -11.265625 1.4375 -11.484375 C 1.507812 -11.710938 1.570312 -11.929688 1.625 -12.140625 C 1.695312 -12.359375 1.828125 -12.507812 2.015625 -12.59375 C 2.203125 -12.6875 2.390625 -12.707031 2.578125 -12.65625 C 2.785156 -12.601562 2.941406 -12.484375 3.046875 -12.296875 C 3.148438 -12.117188 3.160156 -11.921875 3.078125 -11.703125 C 3.023438 -11.492188 2.96875 -11.273438 2.90625 -11.046875 C 2.84375 -10.828125 2.769531 -10.585938 2.6875 -10.328125 C 2.5 -9.640625 2.285156 -8.882812 2.046875 -8.0625 C 1.816406 -7.25 1.582031 -6.421875 1.34375 -5.578125 C 2.238281 -7.265625 3.003906 -8.382812 3.640625 -8.9375 C 4.273438 -9.488281 4.851562 -9.753906 5.375 -9.734375 C 6.113281 -9.679688 6.691406 -9.269531 7.109375 -8.5 C 7.535156 -7.738281 7.894531 -6.859375 8.1875 -5.859375 C 8.582031 -4.484375 8.953125 -3.609375 9.296875 -3.234375 C 9.640625 -2.867188 9.890625 -2.6875 10.046875 -2.6875 C 10.390625 -2.632812 10.789062 -2.828125 11.25 -3.265625 C 11.71875 -3.703125 12.179688 -4.253906 12.640625 -4.921875 C 13.097656 -5.597656 13.53125 -6.265625 13.9375 -6.921875 C 14.351562 -7.578125 14.664062 -8.117188 14.875 -8.546875 C 14.976562 -8.734375 15.132812 -8.851562 15.34375 -8.90625 C 15.5625 -8.957031 15.757812 -8.929688 15.9375 -8.828125 Z M 15.9375 -8.828125 "/></g></g></g><g fill="#ffffff" fill-opacity="1"><g transform="translate(360.263257, 255.534209)"><g><path d="M 18.15625 -8.78125 C 18.257812 -8.59375 18.289062 -8.394531 18.25 -8.1875 C 18.21875 -7.976562 18.109375 -7.820312 17.921875 -7.71875 C 16.390625 -6.71875 14.644531 -5.550781 12.6875 -4.21875 C 10.738281 -2.882812 8.75 -1.347656 6.71875 0.390625 C 5.820312 5.773438 4.859375 10.398438 3.828125 14.265625 C 2.804688 18.128906 1.75 21.316406 0.65625 23.828125 C -0.4375 26.347656 -1.507812 28.269531 -2.5625 29.59375 C -3.625 30.914062 -4.628906 31.707031 -5.578125 31.96875 C -5.867188 32.039062 -6.144531 32.078125 -6.40625 32.078125 C -7.25 32.078125 -7.972656 31.710938 -8.578125 30.984375 C -9.109375 30.296875 -9.476562 29.347656 -9.6875 28.140625 C -9.90625 26.941406 -9.945312 25.609375 -9.8125 24.140625 C -9.675781 22.972656 -9.367188 21.5 -8.890625 19.71875 C -8.421875 17.9375 -7.582031 15.953125 -6.375 13.765625 C -4.757812 10.867188 -2.9375 8.242188 -0.90625 5.890625 C 1.125 3.546875 3.191406 1.453125 5.296875 -0.390625 C 5.484375 -1.472656 5.660156 -2.609375 5.828125 -3.796875 C 6.003906 -4.984375 6.171875 -6.195312 6.328125 -7.4375 C 5.960938 -6.882812 5.582031 -6.320312 5.1875 -5.75 C 4.789062 -5.1875 4.394531 -4.640625 4 -4.109375 C 3.601562 -3.609375 3.160156 -3.140625 2.671875 -2.703125 C 2.179688 -2.273438 1.671875 -2.140625 1.140625 -2.296875 C 0.910156 -2.347656 0.679688 -2.5 0.453125 -2.75 C 0.234375 -3 0.0976562 -3.425781 0.046875 -4.03125 C -0.015625 -4.695312 0.0507812 -5.550781 0.25 -6.59375 C 0.445312 -7.632812 0.753906 -8.707031 1.171875 -9.8125 C 1.597656 -10.914062 2.128906 -11.921875 2.765625 -12.828125 C 3.398438 -13.742188 4.113281 -14.398438 4.90625 -14.796875 C 5.382812 -15.035156 5.957031 -15.160156 6.625 -15.171875 C 7.300781 -15.179688 8.035156 -14.832031 8.828125 -14.125 C 8.984375 -13.96875 9.066406 -13.789062 9.078125 -13.59375 C 9.085938 -13.394531 9.015625 -13.21875 8.859375 -13.0625 C 8.734375 -12.894531 8.5625 -12.804688 8.34375 -12.796875 C 8.132812 -12.785156 7.953125 -12.84375 7.796875 -12.96875 C 6.847656 -13.84375 5.882812 -13.84375 4.90625 -12.96875 C 4.300781 -12.414062 3.765625 -11.691406 3.296875 -10.796875 C 2.835938 -9.898438 2.460938 -8.976562 2.171875 -8.03125 C 1.878906 -7.082031 1.6875 -6.21875 1.59375 -5.4375 C 1.507812 -4.65625 1.519531 -4.125 1.625 -3.84375 C 1.695312 -3.894531 1.832031 -4.003906 2.03125 -4.171875 C 2.226562 -4.347656 2.472656 -4.632812 2.765625 -5.03125 C 3.296875 -5.707031 3.832031 -6.441406 4.375 -7.234375 C 4.914062 -8.023438 5.410156 -8.765625 5.859375 -9.453125 C 6.304688 -10.140625 6.632812 -10.679688 6.84375 -11.078125 C 7.050781 -11.421875 7.351562 -11.523438 7.75 -11.390625 C 8.144531 -11.285156 8.316406 -11.023438 8.265625 -10.609375 C 8.078125 -9.046875 7.882812 -7.539062 7.6875 -6.09375 C 7.488281 -4.644531 7.285156 -3.25 7.078125 -1.90625 C 8.921875 -3.40625 10.707031 -4.734375 12.4375 -5.890625 C 14.164062 -7.054688 15.71875 -8.085938 17.09375 -8.984375 C 17.28125 -9.109375 17.472656 -9.144531 17.671875 -9.09375 C 17.867188 -9.039062 18.03125 -8.9375 18.15625 -8.78125 Z M -6.015625 30.5 C -5.378906 30.3125 -4.625 29.691406 -3.75 28.640625 C -2.882812 27.585938 -1.957031 25.96875 -0.96875 23.78125 C 0.0195312 21.59375 1.019531 18.71875 2.03125 15.15625 C 3.050781 11.59375 4.007812 7.226562 4.90625 2.0625 C 3.082031 3.71875 1.316406 5.582031 -0.390625 7.65625 C -2.109375 9.726562 -3.65625 12.015625 -5.03125 14.515625 C -6.394531 16.992188 -7.320312 19.296875 -7.8125 21.421875 C -8.300781 23.546875 -8.472656 25.351562 -8.328125 26.84375 C -8.179688 28.332031 -7.867188 29.394531 -7.390625 30.03125 C -7.003906 30.5 -6.546875 30.65625 -6.015625 30.5 Z M -6.015625 30.5 "/></g></g></g><g fill="#ffffff" fill-opacity="1"><g transform="translate(243.954833, 236.98204)"><g><path d="M 61.3125 -105.59375 L 103.9375 0 L 78.078125 0 L 70.265625 -21.125 L 30.078125 -21.125 L 22.265625 0 L -3.578125 0 L 39.046875 -105.59375 Z M 62.078125 -42.234375 L 50.296875 -72.953125 L 50.046875 -72.953125 L 38.265625 -42.234375 Z M 62.078125 -42.234375 "/></g></g></g></svg>