<?xml version="1.0" standalone="no"?>
<!DOCTYPE svg PUBLIC "-//W3C//DTD SVG 20010904//EN"
 "http://www.w3.org/TR/2001/REC-SVG-20010904/DTD/svg10.dtd">
<svg version="1.0" xmlns="http://www.w3.org/2000/svg"
 width="608.000000pt" height="217.000000pt" viewBox="0 0 608.000000 217.000000"
 preserveAspectRatio="xMidYMid meet">

<g transform="translate(0.000000,217.000000) scale(0.100000,-0.100000)"
fill="#000000" stroke="none">
<path d="M0 1085 l0 -1085 3040 0 3040 0 0 1085 0 1085 -3040 0 -3040 0 0
-1085z m6050 -20 l0 -1005 -1510 0 -1510 0 0 255 0 255 35 0 35 0 0 -220 0
-220 1435 0 1435 0 0 935 0 935 -1435 0 -1435 0 -2 -222 -3 -223 -32 -3 -33
-3 0 260 0 261 1510 0 1510 0 0 -1005z m-5080 391 c81 -30 134 -77 174 -157
53 -106 52 -109 -43 -109 l-78 0 -30 49 c-23 37 -44 55 -87 76 -51 25 -64 27
-134 23 -91 -5 -142 -28 -194 -86 -50 -56 -72 -127 -65 -216 9 -114 51 -187
129 -227 149 -76 350 -5 393 138 6 22 6 22 -137 25 l-143 3 -3 58 -3 57 221 0
220 0 -2 -217 -3 -218 -72 -3 -73 -3 0 61 0 60 -35 -39 c-55 -61 -121 -84
-235 -84 -141 0 -223 29 -299 104 -76 76 -113 177 -113 309 0 129 31 217 105
297 48 52 108 90 175 109 64 18 270 12 332 -10z m4582 -5 c103 -40 192 -143
213 -248 l7 -33 -80 0 -80 0 -12 35 c-7 20 -28 51 -47 70 -103 100 -297 82
-382 -35 -98 -136 -46 -353 104 -433 55 -30 163 -29 221 1 47 24 84 64 103
111 l13 31 80 0 80 0 -7 -32 c-51 -235 -345 -348 -591 -228 -145 71 -226 245
-203 434 21 163 124 294 272 342 64 21 237 13 309 -15z m-3653 -369 c83 -214
154 -398 158 -410 5 -21 3 -22 -80 -22 -56 0 -88 4 -93 12 -4 6 -57 151 -118
321 -61 170 -115 309 -120 310 -5 1 -57 -142 -116 -318 l-107 -320 -81 -3
c-62 -2 -82 0 -82 10 0 7 64 192 142 411 l142 397 101 0 101 0 153 -388z m545
138 c72 -135 135 -251 140 -258 5 -9 54 71 149 247 l141 261 83 0 83 0 -2
-407 -3 -408 -77 -3 -78 -3 0 261 c0 154 -4 259 -9 256 -5 -4 -60 -96 -121
-206 l-112 -201 -56 3 -55 3 -141 265 c-78 146 -163 305 -188 353 l-47 88 80
-3 81 -3 132 -245z m1346 175 l0 -75 -305 0 -305 0 0 75 0 75 305 0 305 0 0
-75z m953 55 c105 -33 158 -109 159 -230 1 -117 -32 -188 -113 -242 -53 -35
-118 -48 -244 -48 l-105 0 0 -140 0 -140 -75 0 -75 0 0 410 0 410 194 0 c166
0 203 -3 259 -20z m-2514 -334 l71 -133 0 -167 0 -167 -72 3 -73 3 -3 298 c-1
163 0 297 2 297 3 0 36 -60 75 -134z m1559 -53 l3 -73 -306 0 -305 0 0 68 c0
38 3 72 7 75 4 4 140 6 302 5 l296 -3 3 -72z m0 -330 l-3 -78 -300 0 -300 0
-3 78 -3 77 306 0 306 0 -3 -77z"/>
<path d="M4440 1200 l0 -130 93 0 c115 0 170 22 192 74 19 44 19 77 1 120 -21
50 -65 66 -185 66 l-101 0 0 -130z"/>
</g>
</svg>
